<svg width="32" height="32" viewBox="0 0 32 32" fill="none" xmlns="http://www.w3.org/2000/svg">
<rect width="32" height="32" rx="8" fill="url(#paint0_linear_1103_57457)"/>
<path d="M26.1022 9.4901V22.5114C26.1022 23.1976 25.8287 23.8205 25.3858 24.2711C24.9428 24.7217 24.3304 25 23.6559 25C22.3038 25 21.2096 23.8854 21.2096 22.5114V9.4901C21.2096 8.1146 22.3053 7.00156 23.6559 7.00156C25.0065 7.00156 26.1022 8.11618 26.1022 9.4901Z" fill="url(#paint1_linear_1103_57457)"/>
<path d="M10.7902 9.49012V19.4174H8.34385C6.99169 19.4174 5.89752 18.3028 5.89752 16.9289V9.42056C5.89752 9.39684 5.89752 9.37312 5.90063 9.34941C5.90063 9.32728 5.90218 9.30514 5.90374 9.28143V9.27352C5.92705 8.98735 6.0001 8.71542 6.112 8.46561C6.11356 8.46245 6.11511 8.45613 6.11822 8.45138C6.12754 8.43083 6.13687 8.41186 6.1462 8.39131C6.15552 8.37233 6.16485 8.35178 6.17573 8.33281L6.18194 8.32016C6.18971 8.30593 6.19904 8.28854 6.20526 8.27273C6.21147 8.26008 6.21769 8.24901 6.22546 8.23636C6.24256 8.20633 6.26121 8.1747 6.2783 8.14625C6.28918 8.12885 6.30006 8.11304 6.31094 8.09565C6.3327 8.06245 6.35446 8.02925 6.37933 7.99763C6.42751 7.93439 6.47724 7.87273 6.52853 7.81423C6.55495 7.78419 6.58137 7.75573 6.60935 7.72727C6.63266 7.70356 6.65908 7.67826 6.6824 7.65613C6.68551 7.65297 6.69172 7.64664 6.69483 7.64348C6.70727 7.63083 6.72281 7.61976 6.73524 7.60553C6.74612 7.59605 6.757 7.58656 6.76788 7.57708C6.78187 7.56443 6.79741 7.55336 6.81451 7.53913C6.86579 7.49802 6.92019 7.4585 6.97459 7.42055L6.98236 7.41423C7.015 7.3921 7.05075 7.36996 7.08338 7.34783C7.08338 7.34783 7.08494 7.34783 7.08649 7.34625C7.11758 7.32727 7.14711 7.30988 7.17819 7.29407C7.18752 7.28775 7.1984 7.283 7.20772 7.27984C7.2388 7.26245 7.273 7.24664 7.30408 7.23083C7.31651 7.22451 7.3305 7.21818 7.34294 7.21186C7.34604 7.21186 7.35071 7.2087 7.35382 7.20553C7.39423 7.18656 7.43464 7.16917 7.47504 7.15494L7.49214 7.14862C7.51856 7.13913 7.54343 7.12964 7.56985 7.12016C7.57607 7.12016 7.58073 7.117 7.58695 7.11383C7.59783 7.11067 7.61026 7.10593 7.62269 7.10277H7.62425C7.63824 7.09644 7.65378 7.09328 7.66777 7.08854C7.69885 7.07905 7.72993 7.07115 7.76102 7.06482C7.7719 7.06166 7.78433 7.0585 7.79677 7.05692C7.81075 7.05376 7.8263 7.05059 7.84028 7.04743C7.86049 7.04427 7.88069 7.03953 7.9009 7.03636C7.93664 7.03004 7.97084 7.0253 8.00658 7.01897C8.01902 7.01897 8.03301 7.01581 8.04544 7.01265C8.05787 7.01265 8.07186 7.00949 8.08429 7.00949C8.10294 7.00949 8.1216 7.00632 8.14025 7.00316H8.14335C8.162 7.00316 8.18066 7.00158 8.1962 7H8.39669C8.42 7 8.44332 7 8.46663 7.00316C8.48839 7.00316 8.51015 7.00474 8.53191 7.00632H8.54279C8.56454 7.00791 8.58475 7.01265 8.60806 7.01423C8.86606 7.04427 9.11163 7.11383 9.33854 7.21818C9.34476 7.21976 9.34787 7.22134 9.35253 7.22609C9.37273 7.23557 9.39138 7.24506 9.41003 7.25455C9.42713 7.26245 9.44267 7.27194 9.46132 7.28142C9.47065 7.28459 9.47842 7.29091 9.48774 7.29407C9.49707 7.29723 9.50484 7.30356 9.51417 7.3083C9.52505 7.31462 9.53593 7.32095 9.5468 7.32727C9.54836 7.32727 9.54991 7.32885 9.55302 7.33044C9.60276 7.36047 9.65249 7.39051 9.69912 7.42214C9.79703 7.49012 9.88873 7.56285 9.97577 7.64348C10.0333 7.69723 10.0877 7.75415 10.1421 7.81265L10.1809 7.85692C10.1918 7.86799 10.2011 7.88063 10.2105 7.89328C10.2198 7.90593 10.2291 7.91542 10.2369 7.92648C10.24 7.93281 10.2446 7.93597 10.2493 7.94071C10.2633 7.95968 10.2788 7.97866 10.2913 7.99763L10.3006 8.0087C10.5757 8.38814 10.7482 8.84822 10.7746 9.34941C10.7762 9.39368 10.7777 9.43953 10.7777 9.4838H10.7886L10.7902 9.49012Z" fill="url(#paint2_linear_1103_57457)"/>
<path d="M8.34385 24.9984C6.99479 24.9984 5.89752 23.8822 5.89752 22.5099C5.89752 21.1376 6.99479 20.0214 8.34385 20.0214H10.7902V22.5099C10.7902 23.8854 9.6929 24.9984 8.34385 24.9984Z" fill="url(#paint3_linear_1103_57457)"/>
<path d="M18.4198 20.2728V20.2823C18.3312 20.9147 18.0033 21.5107 17.4608 21.9218C17.0226 22.2554 16.5097 22.4151 15.9999 22.4151C15.2554 22.4151 14.5172 22.0704 14.0385 21.4143L10.7917 16.9858L9.91826 15.7953H9.91671L6.38244 10.9795C6.12754 10.6332 5.97679 10.2427 5.92084 9.84273C5.90374 9.72573 5.89752 9.61032 5.89752 9.49332V9.42217C5.89752 9.39846 5.89752 9.37474 5.90063 9.35103C5.90063 9.32889 5.90218 9.30676 5.90374 9.28304V9.27514C5.92705 8.99688 5.99699 8.72336 6.112 8.46723C6.11356 8.46407 6.11511 8.45774 6.11822 8.453C6.12754 8.43245 6.13687 8.41348 6.1462 8.39292C6.15552 8.37395 6.16485 8.3534 6.17573 8.33442L6.18194 8.32178C6.18971 8.30755 6.19904 8.29016 6.20526 8.27435C6.21147 8.2617 6.21769 8.25063 6.22546 8.23798C6.24256 8.20794 6.26121 8.1779 6.2783 8.14786C6.28918 8.13047 6.30006 8.11466 6.31094 8.09727C6.3327 8.06407 6.35446 8.03087 6.37933 7.99925C6.42595 7.93601 6.47569 7.87435 6.52853 7.81585C6.55495 7.78581 6.58137 7.75735 6.60935 7.72889C6.63266 7.70518 6.65753 7.67988 6.6824 7.65774C6.68551 7.65458 6.69172 7.64826 6.69483 7.6451C6.70727 7.63245 6.72281 7.62138 6.73524 7.60715C6.74612 7.59767 6.757 7.58818 6.76788 7.57869C6.78187 7.56604 6.79741 7.55498 6.81451 7.54075C6.83471 7.52652 6.85336 7.50913 6.87357 7.49332C6.94195 7.44114 7.01189 7.39371 7.08338 7.35102C7.08338 7.35102 7.08494 7.35102 7.08649 7.34944C7.15799 7.30676 7.23103 7.26723 7.30408 7.23245C7.31652 7.22612 7.3305 7.2198 7.34294 7.21347C7.34605 7.21347 7.35071 7.21031 7.35382 7.20715C7.39423 7.18818 7.43464 7.17079 7.47504 7.15656L7.49214 7.15023C7.51856 7.14075 7.54343 7.13126 7.56985 7.12178C7.57607 7.12178 7.58073 7.11861 7.58695 7.11545C7.59783 7.11229 7.61026 7.10755 7.62269 7.10438H7.62425C7.63824 7.09806 7.65378 7.0949 7.66777 7.09015C7.69885 7.08067 7.72994 7.07276 7.76102 7.06644C7.7719 7.06328 7.78433 7.06012 7.79677 7.05853C7.81075 7.05537 7.8263 7.05221 7.84028 7.04905C7.86049 7.04589 7.88069 7.04114 7.9009 7.03798C7.93664 7.03166 7.97084 7.02691 8.00658 7.02059C8.01902 7.02059 8.03301 7.01743 8.04544 7.01427C8.05787 7.01427 8.07186 7.0111 8.08429 7.0111C8.10295 7.0111 8.1216 7.00794 8.14025 7.00478H8.14335C8.16201 7.00478 8.18066 7.0032 8.1962 7.00162H8.39669C8.42 7.00162 8.44332 7.00162 8.46663 7.00478C8.48839 7.00478 8.51015 7.00636 8.53191 7.00794H8.54279C8.56455 7.00952 8.58475 7.01427 8.60806 7.01585C8.85829 7.04589 9.10541 7.11387 9.33854 7.2198C9.34476 7.22138 9.34787 7.22296 9.35253 7.2277C9.37273 7.23719 9.39138 7.24668 9.41004 7.25616C9.42713 7.26407 9.44267 7.27355 9.46132 7.28304C9.47065 7.2862 9.47842 7.29253 9.48775 7.29569C9.49707 7.29885 9.50484 7.30517 9.51417 7.30992C9.52505 7.31624 9.53593 7.32257 9.54681 7.32889C9.54836 7.32889 9.54991 7.33047 9.55302 7.33205C9.60276 7.36051 9.65094 7.39213 9.69912 7.42375C9.79703 7.49016 9.88873 7.56288 9.97577 7.6451C10.0333 7.69727 10.0877 7.75419 10.1421 7.81427L10.1809 7.85854C10.1918 7.8696 10.2011 7.88225 10.2105 7.8949C10.2198 7.90755 10.2291 7.91703 10.2369 7.9281C10.24 7.93442 10.2446 7.93759 10.2493 7.94233C10.2633 7.9613 10.2788 7.98027 10.2913 7.99925L10.3006 8.01031L15.4404 15.0206L17.9458 18.4356C18.3483 18.9827 18.4928 19.6435 18.4074 20.2696L18.4182 20.2665L18.4198 20.2728Z" fill="url(#paint4_linear_1103_57457)"/>
<path d="M26.0789 9.83638C26.023 10.2364 25.8707 10.6301 25.6158 10.9763L17.9551 21.4253C16.9744 22.7645 15.0021 22.7581 14.026 21.4158L12.9583 19.9439L11.143 17.468L9.90427 15.7795C11.5611 17.7731 14.6197 17.6704 16.1522 15.5755L21.6945 8.00239C22.5027 6.90199 24.0336 6.67432 25.1184 7.49646C25.8598 8.0593 26.1986 8.96839 26.0789 9.83954V9.83638Z" fill="url(#paint5_linear_1103_57457)"/>
<defs>
<linearGradient id="paint0_linear_1103_57457" x1="16.0965" y1="11.7203" x2="16.0623" y2="32.0474" gradientUnits="userSpaceOnUse">
<stop stop-color="#1F6CFF"/>
<stop offset="1" stop-color="#0046CE"/>
</linearGradient>
<linearGradient id="paint1_linear_1103_57457" x1="23.6699" y1="13.5929" x2="23.5991" y2="25.0253" gradientUnits="userSpaceOnUse">
<stop stop-color="white"/>
<stop offset="1" stop-color="#BFCEFF"/>
</linearGradient>
<linearGradient id="paint2_linear_1103_57457" x1="5.36598" y1="16.0719" x2="9.22138" y2="13.2608" gradientUnits="userSpaceOnUse">
<stop stop-color="white"/>
<stop offset="1" stop-color="#BFCEFF"/>
</linearGradient>
<linearGradient id="paint3_linear_1103_57457" x1="8.35784" y1="21.844" x2="8.35242" y2="25.0055" gradientUnits="userSpaceOnUse">
<stop stop-color="white"/>
<stop offset="1" stop-color="#BFCEFF"/>
</linearGradient>
<linearGradient id="paint4_linear_1103_57457" x1="7.21705" y1="7.87435" x2="17.6257" y2="21.7691" gradientUnits="userSpaceOnUse">
<stop stop-color="white"/>
<stop offset="1" stop-color="#BFCEFF"/>
</linearGradient>
<linearGradient id="paint5_linear_1103_57457" x1="12.0149" y1="20.4577" x2="24.8877" y2="8.57635" gradientUnits="userSpaceOnUse">
<stop stop-color="white"/>
<stop offset="1" stop-color="#BFCEFF"/>
</linearGradient>
</defs>
</svg>
